<svg width="80" height="81" viewBox="0 0 80 81" fill="none" xmlns="http://www.w3.org/2000/svg">
<mask id="mask0_11_157" style="mask-type:luminance" maskUnits="userSpaceOnUse" x="0" y="0" width="80" height="81">
<path d="M80 0H0V81H80V0Z" fill="white"/>
</mask>
<g mask="url(#mask0_11_157)">
<path d="M49.0079 40.4941L45.9562 45.8371L45.9555 45.8416L45.9536 45.8454L45.9506 45.8479L45.9471 45.8488L36.0677 63.1444L23.1275 40.4941L0 0H25.8713L43.1037 30.1714C43.1128 30.1831 43.1218 30.1831 43.1218 30.1949L49.0079 40.4941Z" fill="url(#paint0_linear_11_157)"/>
<path d="M36.0677 63.1444L35.6693 63.8474L34.8543 65.2652C34.8452 65.2769 34.8452 65.2886 34.8362 65.3003L29.8738 73.9944L25.8713 81.0012H0L2.15519 77.2283C2.15585 77.2194 2.15907 77.2109 2.16424 77.2048H2.1733L18.5817 48.45H18.5908V48.4383L18.5998 48.4266L19.1522 47.4541L22.5661 41.4678L23.1275 40.4953L36.0677 63.1444Z" fill="url(#paint1_linear_11_157)"/>
<g style="mix-blend-mode:multiply" opacity="0.15">
<path d="M36.068 63.1444L35.6696 63.8474L34.8546 65.2652C34.8455 65.2769 34.8456 65.2886 34.8365 65.3003L29.8741 73.9944L29.5572 73.2093L19.1525 47.4541L22.5664 41.4678L23.1279 40.4953L36.068 63.1444Z" fill="#DA2F2F"/>
</g>
<g style="mix-blend-mode:multiply" opacity="0.25">
<path d="M45.9471 45.8488L36.0677 63.1444L35.6692 63.8474L35.5425 63.6365C34.0031 61.047 32.4455 58.481 30.9242 55.8564C29.3939 53.2552 27.8454 50.6657 26.3422 48.0294L22.5661 41.4678L23.1275 40.4953L0 0C1.62997 2.50745 3.20561 5.07348 4.79031 7.61609C6.39312 10.1587 7.94159 12.7482 9.50818 15.3142C12.6142 20.4814 15.69 25.6759 18.7356 30.8979L23.2633 38.7717L27.7548 46.6807C29.258 49.3171 30.7159 51.9886 32.201 54.6366C33.5141 56.9918 34.7999 59.3703 36.0949 61.7372L38.1142 58.4095C38.9654 57.0035 39.8257 55.5857 40.7041 54.1914C42.4517 51.4027 44.1542 48.6023 45.9471 45.8488Z" fill="#DA2F2F"/>
</g>
<g style="mix-blend-mode:multiply" opacity="0.25">
<path d="M34.8362 65.2992L29.8738 73.9933L25.8713 81H0C2.15519 80.6837 4.31037 80.4845 6.46556 80.3205C7.54315 80.2384 8.62075 80.1681 9.69834 80.1213C10.7759 80.0744 11.8535 79.9924 12.9311 79.9689C15.0954 79.8869 17.2506 79.8518 19.4057 79.8401C20.4833 79.8166 21.5609 79.8401 22.6385 79.8518C23.5803 79.8635 24.522 79.8635 25.4638 79.8869L27.5103 76.489C28.1985 75.3993 28.8686 74.2979 29.5569 73.2082C29.6655 73.0325 29.7832 72.8567 29.8919 72.6809C31.4857 70.1747 33.1156 67.7012 34.8362 65.2992Z" fill="#DA2F2F"/>
</g>
<g style="mix-blend-mode:screen" opacity="0.4">
<path d="M2.16415 77.205H2.1732L2.15509 77.2299C2.15575 77.2203 2.15898 77.2115 2.16415 77.205Z" fill="white"/>
</g>
<g style="mix-blend-mode:screen" opacity="0.4">
<path d="M18.5911 48.4499C18.5006 48.6842 17.7308 50.641 16.445 53.3242C15.7658 54.7654 14.9508 56.4175 14.0362 58.1516C13.5744 59.0187 13.1216 59.9209 12.6145 60.8114C12.1074 61.7019 11.6094 62.6158 11.1023 63.518C10.5771 64.4202 10.0609 65.3107 9.54476 66.1895C9.02859 67.0683 8.49432 67.9002 7.99627 68.7204C6.98207 70.3608 6.00408 71.8606 5.14382 73.126C3.53196 75.4928 2.31853 77.0278 2.17365 77.2035L18.5821 48.4499C18.5911 48.4382 18.5911 48.4499 18.5911 48.4499Z" fill="white"/>
</g>
<g style="mix-blend-mode:screen" opacity="0.4">
<path d="M43.1037 30.1714C41.4828 27.8397 39.9253 25.4377 38.404 23.0357C36.8646 20.6103 35.3614 18.1614 33.8672 15.7009C32.3731 13.2403 30.9061 10.7445 29.4663 8.23709C28.0899 5.88196 26.7678 3.49168 25.4185 1.11312L21.0991 1.00767L16.3269 0.796759C13.1485 0.609286 9.97001 0.39838 6.79156 0H25.8713L43.1037 30.1714Z" fill="white"/>
</g>
<g style="mix-blend-mode:screen" opacity="0.3">
<path d="M45.6304 40.4941L5.38812 3.51511H24.5041L41.0393 32.4679L41.0574 32.4914L45.6304 40.4941Z" fill="white"/>
</g>
<path d="M79.9997 40.4943L76.948 45.8373C76.948 45.8404 76.9471 45.8434 76.9454 45.8455C76.9437 45.8477 76.9414 45.849 76.939 45.849L67.0595 63.1446L54.1193 40.4955L30.9918 0.00134277H56.8631L74.0956 30.1728C74.1046 30.1845 74.1137 30.1845 74.1137 30.1962L79.9997 40.4943Z" fill="url(#paint2_linear_11_157)"/>
<path d="M67.0595 63.1444L66.6611 63.8474L65.8461 65.2652C65.837 65.2769 65.837 65.2886 65.828 65.3003L60.8656 73.9944L56.8631 81.0012H30.9918L33.147 77.2283C33.1479 77.2234 33.1495 77.2188 33.1519 77.2148C33.1543 77.2107 33.1572 77.2073 33.1606 77.2048L49.569 48.4512H49.578V48.4395L49.5871 48.4277L50.1395 47.4552L53.5534 41.4678L54.1148 40.4953L67.0595 63.1444Z" fill="url(#paint3_linear_11_157)"/>
<g style="mix-blend-mode:multiply" opacity="0.15">
<path d="M67.0598 63.1444L66.6613 63.8474L65.8464 65.2652C65.8373 65.2769 65.8373 65.2886 65.8283 65.3003L60.8659 73.9944L60.5489 73.2093L50.1443 47.4552L53.5582 41.4678L54.1196 40.4953L67.0598 63.1444Z" fill="#DA2F2F"/>
</g>
<g style="mix-blend-mode:multiply" opacity="0.25">
<path d="M76.939 45.849L67.0595 63.1446L66.6611 63.8476L66.5343 63.6367C64.9949 61.0472 63.4373 58.4812 61.916 55.8566C60.3857 53.2554 58.8372 50.6659 57.334 48.0296L53.5579 41.468L54.1193 40.4955L30.9918 0.00134277C32.6218 2.5088 34.1974 5.07483 35.7821 7.61743C37.3849 10.16 38.9334 12.7495 40.5 15.3156C43.606 20.4828 46.6819 25.6773 49.7275 30.8992L54.2552 38.7731L58.7466 46.6821C60.2498 49.3185 61.7078 51.9899 63.1928 54.638C64.5059 56.9931 65.7918 59.3717 67.0867 61.7385L69.106 58.4109C69.9572 57.0048 70.8175 55.5871 71.6959 54.1928C73.4436 51.4029 75.146 48.6025 76.939 45.849Z" fill="#DA2F2F"/>
</g>
<g style="mix-blend-mode:multiply" opacity="0.25">
<path d="M65.828 65.2992L60.8656 73.9933L56.8631 81H30.9918C33.147 80.6837 35.3022 80.4845 37.4574 80.3205C38.535 80.2384 39.6126 80.1681 40.6902 80.1213C41.7678 80.0744 42.8453 79.9924 43.9229 79.9689C46.0872 79.8869 48.2424 79.8518 50.3976 79.8401C51.4752 79.8166 52.5527 79.8401 53.6303 79.8518C54.5721 79.8635 55.5139 79.8635 56.4556 79.8869L58.5021 76.489C59.1904 75.3993 59.8605 74.2979 60.5487 73.2082C60.6573 73.0325 60.7751 72.8567 60.8837 72.6809C62.4775 70.1747 64.1074 67.7012 65.828 65.2992Z" fill="#DA2F2F"/>
</g>
<g style="mix-blend-mode:screen" opacity="0.4">
<path d="M33.1606 77.205L33.1425 77.2299C33.1438 77.2241 33.1462 77.2188 33.1493 77.2145C33.1525 77.2101 33.1563 77.2069 33.1606 77.205Z" fill="white"/>
</g>
<g style="mix-blend-mode:screen" opacity="0.4">
<path d="M49.5829 48.4499C49.4923 48.6842 48.7226 50.641 47.4367 53.3242C46.7576 54.7654 45.9426 56.4175 45.028 58.1516C44.5662 59.0187 44.1134 59.9209 43.6063 60.8114C43.0992 61.7019 42.6011 62.6158 42.094 63.518C41.5688 64.4202 41.0527 65.3107 40.5365 66.1895C40.0203 67.0683 39.4861 67.9002 38.988 68.7204C37.9738 70.3608 36.9958 71.8606 36.1356 73.126C34.5237 75.4928 33.3103 77.0278 33.1654 77.2035L49.5738 48.4499C49.5829 48.4382 49.5829 48.4499 49.5829 48.4499Z" fill="white"/>
</g>
<g style="mix-blend-mode:screen" opacity="0.4">
<path d="M74.0955 30.1714C72.4746 27.8397 70.9171 25.4377 69.3958 23.0357C67.8563 20.6103 66.3531 18.1614 64.859 15.7009C63.3649 13.2403 61.8979 10.7445 60.4581 8.23709C59.0816 5.88196 57.7596 3.49168 56.4103 1.11312L52.0909 1.00767L47.3187 0.796759C44.1402 0.609286 40.9618 0.39838 37.7833 0H56.8631L74.0955 30.1714Z" fill="white"/>
</g>
<g style="mix-blend-mode:screen" opacity="0.3">
<path d="M76.6266 40.4941L36.3844 3.51511H55.5004L72.0355 32.4679L72.0537 32.4914L76.6266 40.4941Z" fill="white"/>
</g>
</g>
<defs>
<linearGradient id="paint0_linear_11_157" x1="24.5039" y1="0.315722" x2="24.5039" y2="57.0194" gradientUnits="userSpaceOnUse">
<stop stop-color="#FCC400"/>
<stop offset="0.162" stop-color="#FBC000"/>
<stop offset="0.307" stop-color="#FBB500"/>
<stop offset="0.446" stop-color="#FBA300"/>
<stop offset="0.581" stop-color="#FA8900"/>
<stop offset="0.712" stop-color="#FA6800"/>
<stop offset="0.842" stop-color="#F93F00"/>
<stop offset="0.967" stop-color="#F81000"/>
<stop offset="1" stop-color="#F80300"/>
</linearGradient>
<linearGradient id="paint1_linear_11_157" x1="18.0338" y1="82.0544" x2="18.0338" y2="50.7433" gradientUnits="userSpaceOnUse">
<stop stop-color="#F24527"/>
<stop offset="1" stop-color="#1E4450"/>
</linearGradient>
<linearGradient id="paint2_linear_11_157" x1="55.4957" y1="0.317059" x2="55.4957" y2="57.0197" gradientUnits="userSpaceOnUse">
<stop stop-color="#FCC400"/>
<stop offset="0.162" stop-color="#FBC000"/>
<stop offset="0.307" stop-color="#FBB500"/>
<stop offset="0.446" stop-color="#FBA300"/>
<stop offset="0.581" stop-color="#FA8900"/>
<stop offset="0.712" stop-color="#FA6800"/>
<stop offset="0.842" stop-color="#F93F00"/>
<stop offset="0.967" stop-color="#F81000"/>
<stop offset="1" stop-color="#F80300"/>
</linearGradient>
<linearGradient id="paint3_linear_11_157" x1="49.0257" y1="82.0544" x2="49.0257" y2="50.7433" gradientUnits="userSpaceOnUse">
<stop stop-color="#F24527"/>
<stop offset="1" stop-color="#1E4450"/>
</linearGradient>
</defs>
</svg>
